<svg width="300" height="300" viewBox="0 0 300 300" fill="none" xmlns="http://www.w3.org/2000/svg">
<g clip-path="url(#clip0_1319_3125)">
<g clip-path="url(#clip1_1319_3125)">
<circle cx="150" cy="150" r="150" fill="url(#paint0_linear_1319_3125)" fill-opacity="0.1"/>
<circle cx="150" cy="150" r="105.363" fill="url(#paint1_linear_1319_3125)" fill-opacity="0.1"/>
<circle cx="150.519" cy="149.481" r="59.1696" fill="url(#paint2_linear_1319_3125)" fill-opacity="0.1"/>
</g>
<rect x="42.7715" y="256.263" width="65.2844" height="15.0212" transform="rotate(-41.7371 42.7715 256.263)" fill="url(#paint3_linear_1319_3125)"/>
<rect x="87.1113" y="266.416" width="47.7889" height="15.0212" transform="rotate(-41.7371 87.1113 266.416)" fill="url(#paint4_linear_1319_3125)"/>
<rect x="124.392" y="287.481" width="45.127" height="15.0212" transform="rotate(-41.7371 124.392 287.481)" fill="url(#paint5_linear_1319_3125)"/>
<g filter="url(#filter0_d_1319_3125)">
<path d="M183.162 201.648C204.672 229.06 210.034 257.571 187.809 271.726C170.11 286.355 130.028 275.385 108.48 243.66C85.5098 214.754 84.1813 184.717 101.86 173.594C123.608 154.935 165.53 179.177 183.162 201.648Z" fill="url(#paint6_linear_1319_3125)"/>
</g>
<path d="M140.658 171.799C167.475 165.571 216.956 168.685 200.347 230.969C173.941 295.098 79.3416 192.238 140.658 171.799Z" fill="url(#paint7_linear_1319_3125)"/>
<g filter="url(#filter1_ddddii_1319_3125)">
<path d="M108.262 154.51V149.025L122.015 127.358H126.744V134.95H123.945L115.275 148.671V148.928H134.819V154.51H108.262ZM124.074 160.301V152.837L124.203 150.408V127.358H130.734V160.301H124.074ZM152.377 161.025C149.61 161.014 147.229 160.333 145.235 158.982C143.251 157.631 141.723 155.674 140.65 153.111C139.589 150.548 139.063 147.465 139.074 143.861C139.074 140.269 139.605 137.207 140.666 134.677C141.739 132.146 143.267 130.221 145.251 128.902C147.245 127.572 149.621 126.907 152.377 126.907C155.133 126.907 157.503 127.572 159.487 128.902C161.481 130.232 163.015 132.162 164.087 134.693C165.16 137.213 165.69 140.269 165.68 143.861C165.68 147.475 165.143 150.564 164.071 153.127C163.009 155.69 161.487 157.647 159.503 158.998C157.519 160.349 155.144 161.025 152.377 161.025ZM152.377 155.25C154.264 155.25 155.771 154.301 156.897 152.403C158.023 150.505 158.58 147.658 158.57 143.861C158.57 141.363 158.312 139.282 157.798 137.62C157.294 135.958 156.575 134.709 155.642 133.872C154.72 133.036 153.631 132.618 152.377 132.618C150.5 132.618 148.999 133.556 147.873 135.433C146.747 137.309 146.178 140.119 146.168 143.861C146.168 146.392 146.42 148.505 146.924 150.199C147.438 151.883 148.162 153.148 149.095 153.995C150.028 154.832 151.122 155.25 152.377 155.25ZM170.147 154.51V149.025L183.901 127.358H188.63V134.95H185.831L177.161 148.671V148.928H196.705V154.51H170.147ZM185.96 160.301V152.837L186.088 150.408V127.358H192.619V160.301H185.96Z" fill="url(#paint8_linear_1319_3125)"/>
</g>
</g>
<defs>
<filter id="filter0_d_1319_3125" x="69.019" y="150.337" width="153.841" height="152.691" filterUnits="userSpaceOnUse" color-interpolation-filters="sRGB">
<feFlood flood-opacity="0" result="BackgroundImageFix"/>
<feColorMatrix in="SourceAlpha" type="matrix" values="0 0 0 0 0 0 0 0 0 0 0 0 0 0 0 0 0 0 127 0" result="hardAlpha"/>
<feOffset dy="4.15225"/>
<feGaussianBlur stdDeviation="10.3806"/>
<feComposite in2="hardAlpha" operator="out"/>
<feColorMatrix type="matrix" values="0 0 0 0 0.431373 0 0 0 0 0.0117647 0 0 0 0 0.533333 0 0 0 0.5 0"/>
<feBlend mode="normal" in2="BackgroundImageFix" result="effect1_dropShadow_1319_3125"/>
<feBlend mode="normal" in="SourceGraphic" in2="effect1_dropShadow_1319_3125" result="shape"/>
</filter>
<filter id="filter1_ddddii_1319_3125" x="-73.3992" y="-54.7537" width="425.814" height="371.488" filterUnits="userSpaceOnUse" color-interpolation-filters="sRGB">
<feFlood flood-opacity="0" result="BackgroundImageFix"/>
<feColorMatrix in="SourceAlpha" type="matrix" values="0 0 0 0 0 0 0 0 0 0 0 0 0 0 0 0 0 0 127 0" result="hardAlpha"/>
<feOffset dx="-51.9031" dy="-51.9031"/>
<feGaussianBlur stdDeviation="64.8789"/>
<feColorMatrix type="matrix" values="0 0 0 0 0.0470588 0 0 0 0 0.0470588 0 0 0 0 0.0470588 0 0 0 0.9 0"/>
<feBlend mode="normal" in2="BackgroundImageFix" result="effect1_dropShadow_1319_3125"/>
<feColorMatrix in="SourceAlpha" type="matrix" values="0 0 0 0 0 0 0 0 0 0 0 0 0 0 0 0 0 0 127 0" result="hardAlpha"/>
<feOffset dx="51.9031" dy="51.9031"/>
<feGaussianBlur stdDeviation="51.9031"/>
<feColorMatrix type="matrix" values="0 0 0 0 0.196078 0 0 0 0 0.196078 0 0 0 0 0.196078 0 0 0 0.9 0"/>
<feBlend mode="normal" in2="effect1_dropShadow_1319_3125" result="effect2_dropShadow_1319_3125"/>
<feColorMatrix in="SourceAlpha" type="matrix" values="0 0 0 0 0 0 0 0 0 0 0 0 0 0 0 0 0 0 127 0" result="hardAlpha"/>
<feOffset dx="-51.9031" dy="51.9031"/>
<feGaussianBlur stdDeviation="51.9031"/>
<feColorMatrix type="matrix" values="0 0 0 0 0.0470588 0 0 0 0 0.0470588 0 0 0 0 0.0470588 0 0 0 0.2 0"/>
<feBlend mode="normal" in2="effect2_dropShadow_1319_3125" result="effect3_dropShadow_1319_3125"/>
<feColorMatrix in="SourceAlpha" type="matrix" values="0 0 0 0 0 0 0 0 0 0 0 0 0 0 0 0 0 0 127 0" result="hardAlpha"/>
<feOffset dx="51.9031" dy="-51.9031"/>
<feGaussianBlur stdDeviation="51.9031"/>
<feColorMatrix type="matrix" values="0 0 0 0 0.0470588 0 0 0 0 0.0470588 0 0 0 0 0.0470588 0 0 0 0.2 0"/>
<feBlend mode="normal" in2="effect3_dropShadow_1319_3125" result="effect4_dropShadow_1319_3125"/>
<feBlend mode="normal" in="SourceGraphic" in2="effect4_dropShadow_1319_3125" result="shape"/>
<feColorMatrix in="SourceAlpha" type="matrix" values="0 0 0 0 0 0 0 0 0 0 0 0 0 0 0 0 0 0 127 0" result="hardAlpha"/>
<feOffset dx="2.07612" dy="2.07612"/>
<feGaussianBlur stdDeviation="1.03806"/>
<feComposite in2="hardAlpha" operator="arithmetic" k2="-1" k3="1"/>
<feColorMatrix type="matrix" values="0 0 0 0 0.0470588 0 0 0 0 0.0470588 0 0 0 0 0.0470588 0 0 0 0.5 0"/>
<feBlend mode="normal" in2="shape" result="effect5_innerShadow_1319_3125"/>
<feColorMatrix in="SourceAlpha" type="matrix" values="0 0 0 0 0 0 0 0 0 0 0 0 0 0 0 0 0 0 127 0" result="hardAlpha"/>
<feOffset dx="-2.07612" dy="-2.07612"/>
<feGaussianBlur stdDeviation="1.03806"/>
<feComposite in2="hardAlpha" operator="arithmetic" k2="-1" k3="1"/>
<feColorMatrix type="matrix" values="0 0 0 0 0.196078 0 0 0 0 0.196078 0 0 0 0 0.196078 0 0 0 0.3 0"/>
<feBlend mode="normal" in2="effect5_innerShadow_1319_3125" result="effect6_innerShadow_1319_3125"/>
</filter>
<linearGradient id="paint0_linear_1319_3125" x1="150" y1="0" x2="150" y2="300" gradientUnits="userSpaceOnUse">
<stop stop-color="white"/>
<stop offset="1" stop-color="white" stop-opacity="0.5"/>
</linearGradient>
<linearGradient id="paint1_linear_1319_3125" x1="150" y1="44.6367" x2="150" y2="255.363" gradientUnits="userSpaceOnUse">
<stop stop-color="white"/>
<stop offset="1" stop-color="white" stop-opacity="0.5"/>
</linearGradient>
<linearGradient id="paint2_linear_1319_3125" x1="150.519" y1="90.3114" x2="150.519" y2="208.651" gradientUnits="userSpaceOnUse">
<stop stop-color="white"/>
<stop offset="1" stop-color="white" stop-opacity="0.5"/>
</linearGradient>
<linearGradient id="paint3_linear_1319_3125" x1="114.153" y1="263.249" x2="51.9241" y2="264.763" gradientUnits="userSpaceOnUse">
<stop stop-color="white"/>
<stop offset="1" stop-color="#D9D9D9" stop-opacity="0"/>
</linearGradient>
<linearGradient id="paint4_linear_1319_3125" x1="139.363" y1="273.402" x2="88.821" y2="272.503" gradientUnits="userSpaceOnUse">
<stop stop-color="white"/>
<stop offset="1" stop-color="#D9D9D9" stop-opacity="0"/>
</linearGradient>
<linearGradient id="paint5_linear_1319_3125" x1="173.733" y1="294.467" x2="126.004" y2="293.666" gradientUnits="userSpaceOnUse">
<stop stop-color="white"/>
<stop offset="1" stop-color="#D9D9D9" stop-opacity="0"/>
</linearGradient>
<linearGradient id="paint6_linear_1319_3125" x1="109.043" y1="168.512" x2="181.94" y2="275.839" gradientUnits="userSpaceOnUse">
<stop stop-color="#7B008F"/>
<stop offset="1" stop-color="#1E0073"/>
</linearGradient>
<linearGradient id="paint7_linear_1319_3125" x1="132.353" y1="227.336" x2="194.637" y2="182.699" gradientUnits="userSpaceOnUse">
<stop stop-color="white" stop-opacity="0.7"/>
<stop offset="1" stop-color="white" stop-opacity="0.37"/>
</linearGradient>
<linearGradient id="paint8_linear_1319_3125" x1="105.883" y1="117.301" x2="152.781" y2="198.07" gradientUnits="userSpaceOnUse">
<stop stop-color="#1D1D1D"/>
<stop offset="1" stop-color="#212121"/>
</linearGradient>
<clipPath id="clip0_1319_3125">
<rect width="300" height="300" fill="white"/>
</clipPath>
<clipPath id="clip1_1319_3125">
<rect width="300" height="300" fill="white"/>
</clipPath>
</defs>
</svg>
