<svg width="64" height="64" viewBox="0 0 64 64" fill="none" xmlns="http://www.w3.org/2000/svg">
<g clip-path="url(#clip0_955_20)">
<rect width="64" height="64" rx="2" fill="black" fill-opacity="0.1"/>
<path d="M71.6728 66.4128C70.8294 68.1467 63.709 63.7626 62.2304 65C60.7517 66.2374 55.3554 63.4754 53.5 64L38.5 49.5L33.5 45.14C35.5053 43.3911 39.2078 40.2911 41.5 38.94C43.68 38.08 46.26 39.42 47.96 41.3L54.34 48.34L71.6728 66.4128Z" fill="url(#paint0_linear_955_20)"/>
<path d="M54 63.5C52.8013 63.8308 51.5635 63.9989 50.32 64H13.72C11.1836 64.0024 8.69637 63.3007 6.53529 61.973C4.3742 60.6453 2.62412 58.7437 1.47998 56.48L9.13998 48L19.04 37.12C19.7318 36.3561 20.576 35.7456 21.5181 35.3278C22.4602 34.91 23.4794 34.6942 24.51 34.6942C25.5406 34.6942 26.5598 34.91 27.5019 35.3278C28.444 35.7456 29.2881 36.3561 29.98 37.12L35.42 43.12L39.88 48L54 63.5Z" fill="url(#paint1_linear_955_20)"/>
<path d="M56.5 66C55.3012 66.3308 51.5635 63.9989 50.32 64H13.72C11.1836 64.0024 7.16109 67.8277 5 66.5C2.83891 65.1723 -6.3959 67.7636 -7.54004 65.5L9.13998 48L19.04 37.12C19.7318 36.3561 20.576 35.7456 21.5181 35.3278C22.4602 34.91 23.4794 34.6942 24.51 34.6942C25.5406 34.6942 26.5598 34.91 27.5019 35.3278C28.444 35.7456 29.2881 36.3561 29.98 37.12L35.42 43.12L39.88 48L56.5 66Z" fill="url(#paint2_linear_955_20)"/>
<path d="M43.4201 25.16C45.9496 25.16 48.0001 23.1095 48.0001 20.58C48.0001 18.0505 45.9496 16 43.4201 16C40.8906 16 38.8401 18.0505 38.8401 20.58C38.8401 23.1095 40.8906 25.16 43.4201 25.16Z" fill="url(#paint3_linear_955_20)"/>
</g>
<rect x="0.5" y="0.5" width="63" height="63" rx="1.5" stroke="white" stroke-opacity="0.06"/>
<defs>
<linearGradient id="paint0_linear_955_20" x1="69.0891" y1="59.756" x2="41.8167" y2="38.3699" gradientUnits="userSpaceOnUse">
<stop stop-color="#7C7C7C"/>
<stop offset="1" stop-color="#484848"/>
</linearGradient>
<linearGradient id="paint1_linear_955_20" x1="50.4451" y1="56.6416" x2="21.2287" y2="26.3629" gradientUnits="userSpaceOnUse">
<stop stop-color="#B3B3B3"/>
<stop offset="1" stop-color="#5A5A5A"/>
</linearGradient>
<linearGradient id="paint2_linear_955_20" x1="52.1654" y1="58.7235" x2="20.4834" y2="22.1564" gradientUnits="userSpaceOnUse">
<stop stop-color="#7C7C7C"/>
<stop offset="1" stop-color="#484848"/>
</linearGradient>
<linearGradient id="paint3_linear_955_20" x1="47.3801" y1="22.86" x2="39.4601" y2="18.28" gradientUnits="userSpaceOnUse">
<stop stop-color="#7C7C7C"/>
<stop offset="1" stop-color="#484848"/>
</linearGradient>
<clipPath id="clip0_955_20">
<rect width="64" height="64" rx="2" fill="white"/>
</clipPath>
</defs>
</svg>
