<svg width="697" height="402" viewBox="0 0 697 402" fill="none" xmlns="http://www.w3.org/2000/svg">
<g opacity="0.78">
<path d="M454.414 167.313L487.544 187.971C494.553 192.341 498.057 194.526 501.846 195.33C504.628 195.92 507.498 195.965 510.298 195.463C514.109 194.778 517.681 192.705 524.824 188.557V188.557" stroke="url(#paint0_linear_328_344)" stroke-width="2" stroke-linecap="round"/>
<path opacity="0.6" d="M376.114 212.229L485.371 275.962" stroke="url(#paint1_linear_328_344)" stroke-width="2" stroke-linecap="round"/>
<path d="M345.765 58.663L400.229 25.8117C410.967 19.3343 416.337 16.0956 422.293 16.0126C428.249 15.9297 433.706 19.0175 444.621 25.1932L446.631 26.3305C457.25 32.3386 462.56 35.3426 468.37 35.3339C474.18 35.3251 479.48 32.3051 490.081 26.2652L520.575 8.89056" stroke="url(#paint2_linear_328_344)" stroke-width="2" stroke-linecap="round"/>
<path d="M334.839 291.744L353.356 302.181C362.673 307.432 373.967 307.808 383.613 303.186V303.186C392.328 299.01 402.442 298.892 411.251 302.865L411.924 303.169C422.19 307.799 434.074 307.104 443.731 301.31L475.231 282.41C492.317 272.158 500.86 267.033 510.324 266.917C519.788 266.801 528.453 271.717 545.784 281.548L576.768 299.124C594.916 309.418 603.989 314.565 613.848 314.235C623.707 313.905 632.416 308.164 649.835 296.68L695.992 266.251" stroke="url(#paint3_linear_328_344)" stroke-width="2" stroke-linecap="round"/>
<path d="M288.709 295.385L284.066 298.287C273.743 304.739 268.582 307.965 262.964 308.509C260.832 308.716 258.681 308.636 256.569 308.272C251.007 307.313 246.099 303.713 236.282 296.515V296.515C226.887 289.625 222.19 286.18 216.851 285.167C214.821 284.783 212.751 284.661 210.69 284.807C205.27 285.189 200.202 288.062 190.067 293.808L1 401" stroke="url(#paint4_linear_328_344)" stroke-width="2" stroke-linecap="round"/>
<path opacity="0.6" d="M105.4 162.457L180.958 116.664C192.942 109.402 198.933 105.771 205.572 105.737C212.212 105.703 218.24 109.273 230.296 116.413L243.595 124.289C255.527 131.356 261.493 134.889 268.07 134.887C274.647 134.885 280.611 131.348 292.539 124.275L372.472 76.8728" stroke="#0CABBB" stroke-width="2" stroke-linecap="round"/>
<path d="M289.316 270.5L46.5234 130.287" stroke="url(#paint5_linear_328_344)" stroke-width="2" stroke-linecap="round"/>
<path d="M332.411 271.106L350.637 260.248C355.297 257.472 357.627 256.084 357.736 253.947C357.845 251.81 355.669 250.192 351.317 246.955L346.831 243.62C342.502 240.401 340.338 238.792 340.44 236.661C340.543 234.531 342.852 233.138 347.471 230.351L372.472 215.264" stroke="#3F13B9" stroke-width="2" stroke-linecap="round"/>
<path d="M332.411 271.106L350.637 260.248C355.297 257.472 357.626 256.084 357.736 253.947C357.845 251.81 355.669 250.192 351.316 246.956L346.863 243.644C342.521 240.416 340.35 238.801 340.457 236.667C340.563 234.533 342.883 233.143 347.524 230.362L478.709 151.755C483.848 148.676 486.417 147.137 486.411 144.864C486.406 142.591 483.829 141.064 478.675 138.01L247.434 1" stroke="url(#paint6_linear_328_344)" stroke-width="2" stroke-linecap="round"/>
<path d="M338.302 283.246C338.302 287.316 335.6 291.322 330.547 294.416C325.527 297.489 318.466 299.455 310.56 299.455C302.655 299.455 295.593 297.489 290.574 294.416C285.521 291.322 282.818 287.316 282.818 283.246C282.818 279.176 285.521 275.169 290.574 272.076C295.593 269.002 302.655 267.036 310.56 267.036C318.466 267.036 325.527 269.002 330.547 272.076C335.6 275.169 338.302 279.176 338.302 283.246Z" stroke="#00942D" stroke-width="4"/>
<g filter="url(#filter0_f_328_344)">
<path d="M338.302 283.246C338.302 287.316 335.6 291.322 330.547 294.416C325.527 297.489 318.466 299.455 310.56 299.455C302.655 299.455 295.593 297.489 290.574 294.416C285.521 291.322 282.818 287.316 282.818 283.246C282.818 279.176 285.521 275.169 290.574 272.076C295.593 269.002 302.655 267.036 310.56 267.036C318.466 267.036 325.527 269.002 330.547 272.076C335.6 275.169 338.302 279.176 338.302 283.246Z" stroke="#00942D" stroke-width="4"/>
</g>
<ellipse cx="377.188" cy="213.911" rx="9.71169" ry="6.67679" fill="#00942D"/>
<g filter="url(#filter1_f_328_344)">
<ellipse cx="377.188" cy="213.911" rx="9.71169" ry="6.67679" fill="#00942D"/>
</g>
<ellipse cx="103.58" cy="343.337" rx="9.71169" ry="6.67679" fill="#00942D"/>
<g filter="url(#filter2_f_328_344)">
<ellipse cx="103.58" cy="343.337" rx="9.71169" ry="6.67679" fill="#00942D"/>
</g>
<path d="M565.313 285.674C565.313 287.479 564.215 289.358 561.937 290.877C559.672 292.387 556.428 293.385 552.745 293.385C549.062 293.385 545.819 292.387 543.554 290.877C541.275 289.358 540.178 287.479 540.178 285.674C540.178 283.869 541.275 281.99 543.554 280.471C545.819 278.961 549.062 277.962 552.745 277.962C556.428 277.962 559.672 278.961 561.937 280.471C564.215 281.99 565.313 283.869 565.313 285.674Z" stroke="#3F13B9" stroke-width="4"/>
<g filter="url(#filter3_f_328_344)">
<path d="M565.313 285.674C565.313 287.479 564.215 289.358 561.937 290.877C559.672 292.387 556.428 293.385 552.745 293.385C549.062 293.385 545.819 292.387 543.554 290.877C541.275 289.358 540.178 287.479 540.178 285.674C540.178 283.869 541.275 281.99 543.554 280.471C545.819 278.961 549.062 277.962 552.745 277.962C556.428 277.962 559.672 278.961 561.937 280.471C564.215 281.99 565.313 283.869 565.313 285.674Z" stroke="#3F13B9" stroke-width="4"/>
</g>
<ellipse cx="399.787" cy="90.2262" rx="19.4234" ry="12.1396" fill="#30E6F8" fill-opacity="0.6"/>
<ellipse cx="399.786" cy="90.2261" rx="14.5675" ry="8.49773" fill="#019830"/>
<g filter="url(#filter4_f_328_344)">
<ellipse cx="399.786" cy="90.2261" rx="14.5675" ry="8.49773" fill="#019830"/>
</g>
<ellipse cx="399.786" cy="90.2263" rx="9.71169" ry="4.85584" fill="#1B2FAC"/>
<path d="M409.419 45.1877C403.967 39.7353 395.127 39.7353 389.674 45.1877C384.222 50.64 384.222 59.4798 389.674 64.9322C389.674 64.9323 389.674 64.9325 389.674 64.9326L392.591 67.8107C392.591 67.8108 392.591 67.8109 392.591 67.811C394.198 69.3831 396.217 71.3457 398.649 73.698C399.15 74.182 399.944 74.1822 400.445 73.6985L409.419 45.1877ZM409.419 45.1877C414.872 50.6401 414.872 59.4803 409.419 64.9326C408.797 65.5552 408.026 66.318 407.106 67.2208C407.106 67.2209 407.105 67.221 407.105 67.2211L400.445 73.6982L409.419 45.1877ZM411.754 67.2692L411.755 67.2685C418.497 60.5261 418.497 49.5944 411.755 42.852C405.013 36.1096 394.081 36.1096 387.339 42.852C380.596 49.5944 380.596 60.5261 387.339 67.2685L387.466 67.1412L387.339 67.2685C387.92 67.8494 388.641 68.5626 389.502 69.4082L389.503 69.4087L396.353 76.072L396.353 76.0723C398.134 77.7949 400.96 77.7951 402.741 76.0728C405.48 73.4247 407.708 71.2581 409.425 69.573L409.425 69.5725L411.754 67.2692ZM405.616 55.6002C405.616 52.2481 402.899 49.5307 399.547 49.5307C396.195 49.5307 393.477 52.2481 393.477 55.6002C393.477 58.9523 396.195 61.6696 399.547 61.6696C402.899 61.6696 405.616 58.9523 405.616 55.6002ZM396.781 55.6002C396.781 54.0724 398.019 52.8339 399.547 52.8339C401.075 52.8339 402.313 54.0724 402.313 55.6002C402.313 57.128 401.075 58.3664 399.547 58.3664C398.019 58.3664 396.781 57.128 396.781 55.6002Z" fill="url(#paint7_linear_328_344)" stroke="url(#paint8_linear_328_344)" stroke-width="0.36"/>
</g>
<defs>
<filter id="filter0_f_328_344" x="276.818" y="261.036" width="67.4844" height="44.4188" filterUnits="userSpaceOnUse" color-interpolation-filters="sRGB">
<feFlood flood-opacity="0" result="BackgroundImageFix"/>
<feBlend mode="normal" in="SourceGraphic" in2="BackgroundImageFix" result="shape"/>
<feGaussianBlur stdDeviation="2" result="effect1_foregroundBlur_328_344"/>
</filter>
<filter id="filter1_f_328_344" x="363.477" y="203.234" width="27.4238" height="21.3536" filterUnits="userSpaceOnUse" color-interpolation-filters="sRGB">
<feFlood flood-opacity="0" result="BackgroundImageFix"/>
<feBlend mode="normal" in="SourceGraphic" in2="BackgroundImageFix" result="shape"/>
<feGaussianBlur stdDeviation="2" result="effect1_foregroundBlur_328_344"/>
</filter>
<filter id="filter2_f_328_344" x="89.8682" y="332.66" width="27.4238" height="21.3536" filterUnits="userSpaceOnUse" color-interpolation-filters="sRGB">
<feFlood flood-opacity="0" result="BackgroundImageFix"/>
<feBlend mode="normal" in="SourceGraphic" in2="BackgroundImageFix" result="shape"/>
<feGaussianBlur stdDeviation="2" result="effect1_foregroundBlur_328_344"/>
</filter>
<filter id="filter3_f_328_344" x="530.178" y="267.962" width="45.1348" height="35.4234" filterUnits="userSpaceOnUse" color-interpolation-filters="sRGB">
<feFlood flood-opacity="0" result="BackgroundImageFix"/>
<feBlend mode="normal" in="SourceGraphic" in2="BackgroundImageFix" result="shape"/>
<feGaussianBlur stdDeviation="4" result="effect1_foregroundBlur_328_344"/>
</filter>
<filter id="filter4_f_328_344" x="377.219" y="73.7283" width="45.1348" height="32.9955" filterUnits="userSpaceOnUse" color-interpolation-filters="sRGB">
<feFlood flood-opacity="0" result="BackgroundImageFix"/>
<feBlend mode="normal" in="SourceGraphic" in2="BackgroundImageFix" result="shape"/>
<feGaussianBlur stdDeviation="4" result="effect1_foregroundBlur_328_344"/>
</filter>
<linearGradient id="paint0_linear_328_344" x1="455.628" y1="166.706" x2="528.466" y2="187.95" gradientUnits="userSpaceOnUse">
<stop stop-color="#07BCCE"/>
<stop offset="0.739583" stop-color="#30E6F8"/>
<stop offset="1" stop-color="#30E6F8" stop-opacity="0"/>
</linearGradient>
<linearGradient id="paint1_linear_328_344" x1="377.998" y1="211.027" x2="494.554" y2="237.654" gradientUnits="userSpaceOnUse">
<stop stop-color="#30E6F8"/>
<stop offset="1" stop-color="#30E6F8"/>
</linearGradient>
<linearGradient id="paint2_linear_328_344" x1="521.182" y1="8.89058" x2="349.407" y2="58.056" gradientUnits="userSpaceOnUse">
<stop stop-color="#30E6F8" stop-opacity="0"/>
<stop offset="0.213542" stop-color="#30E6F8"/>
<stop offset="1" stop-color="#07BCCE"/>
</linearGradient>
<linearGradient id="paint3_linear_328_344" x1="335.446" y1="290.53" x2="695.992" y2="261.395" gradientUnits="userSpaceOnUse">
<stop stop-color="#30E6F8"/>
<stop offset="0.71875" stop-color="#3F13B9"/>
<stop offset="1" stop-color="#3F13B9" stop-opacity="0"/>
</linearGradient>
<linearGradient id="paint4_linear_328_344" x1="289.316" y1="295.385" x2="1.60699" y2="401" gradientUnits="userSpaceOnUse">
<stop stop-color="#3F13B9"/>
<stop offset="0.723958" stop-color="#3F13B9"/>
<stop offset="1" stop-color="#3F13B9" stop-opacity="0"/>
</linearGradient>
<linearGradient id="paint5_linear_328_344" x1="46.5234" y1="130.287" x2="289.316" y2="271.107" gradientUnits="userSpaceOnUse">
<stop stop-color="#07BCCE" stop-opacity="0"/>
<stop offset="0.208333" stop-color="#07BCCE"/>
<stop offset="1" stop-color="#07BCCE"/>
</linearGradient>
<linearGradient id="paint6_linear_328_344" x1="252.289" y1="1.60698" x2="368.83" y2="271.106" gradientUnits="userSpaceOnUse">
<stop stop-color="#07BDCF" stop-opacity="0"/>
<stop offset="0.28021" stop-color="#07BDCF"/>
<stop offset="1" stop-color="#07BDCF"/>
</linearGradient>
<linearGradient id="paint7_linear_328_344" x1="399.547" y1="37.9752" x2="399.547" y2="77.1844" gradientUnits="userSpaceOnUse">
<stop stop-color="#019830"/>
<stop offset="1" stop-color="#30E6F8"/>
</linearGradient>
<linearGradient id="paint8_linear_328_344" x1="399.547" y1="37.9752" x2="399.547" y2="77.1844" gradientUnits="userSpaceOnUse">
<stop stop-color="#019830"/>
<stop offset="1" stop-color="#019830" stop-opacity="0"/>
</linearGradient>
</defs>
</svg>
