<svg width="80" height="80" viewBox="0 0 80 80" fill="none" xmlns="http://www.w3.org/2000/svg">
<g clip-path="url(#clip0_217_323)">
<path fill-rule="evenodd" clip-rule="evenodd" d="M16 0C7.16344 0 0 7.16344 0 16V64C0 72.8366 7.16344 80 16 80H64C72.8366 80 80 72.8366 80 64V16C80 7.16344 72.8366 0 64 0H16ZM21.366 47.8328C23.61 50.0587 26.3413 51.1716 29.5598 51.1716H35.4438C36.1303 51.1716 36.6924 50.9428 37.1303 50.4851C37.5681 50.0274 37.787 49.4664 37.787 48.8019C37.787 48.1375 37.5681 47.5766 37.1303 47.1192C36.6924 46.6618 36.1303 46.4331 35.4438 46.4331H29.5598C27.5811 46.4331 25.9495 45.7909 24.6651 44.5065C23.3807 43.2221 22.7385 41.5905 22.7385 39.6118C22.7385 37.6331 23.3807 36.0016 24.6651 34.7172C25.9495 33.4327 27.5811 32.7905 29.5598 32.7905H35.4438C36.1303 32.7905 36.6924 32.5617 37.1303 32.104C37.5681 31.6464 37.787 31.0853 37.787 30.4208C37.787 29.7564 37.5681 29.1868 37.1303 28.7121C36.6924 28.2374 36.1303 28 35.4438 28H29.5598C26.3413 28 23.61 29.123 21.366 31.3689C19.122 33.6148 18 36.3638 18 39.6159C18 42.868 19.122 45.6069 21.366 47.8328ZM31.5866 40.9313C31.8964 41.2667 32.349 41.4343 32.9444 41.4343H47.0556C47.6171 41.4343 48.0526 41.2697 48.362 40.9405C48.6713 40.6112 48.826 40.1769 48.826 39.6374C48.826 39.0632 48.6713 38.6203 48.362 38.3088C48.0526 37.9972 47.6171 37.8414 47.0556 37.8414H32.9444C32.349 37.8414 31.8964 37.9942 31.5866 38.2996C31.2768 38.6051 31.1219 39.045 31.1219 39.6191C31.1219 40.1586 31.2768 40.596 31.5866 40.9313ZM42.8183 50.4759C43.2566 50.9397 43.8533 51.1716 44.6083 51.1716H50.3882C53.6067 51.1716 56.3466 50.0573 58.6079 47.8287C60.8693 45.6002 62 42.8599 62 39.6078C62 36.3557 60.8693 33.608 58.6079 31.3648C56.3466 29.1216 53.6067 28 50.3882 28H44.6083C43.8533 28 43.2566 28.2343 42.8183 28.703C42.3801 29.1716 42.1609 29.7381 42.1609 30.4026C42.1609 31.067 42.3801 31.6311 42.8183 32.0949C43.2566 32.5586 43.8533 32.7905 44.6083 32.7905H50.3882C52.3669 32.7905 53.9984 33.4327 55.2828 34.7172C56.5673 36.0016 57.2095 37.6331 57.2095 39.6118C57.2095 41.5905 56.5673 43.2221 55.2828 44.5065C53.9984 45.7909 52.3669 46.4331 50.3882 46.4331H44.6083C43.8533 46.4331 43.2566 46.6588 42.8183 47.1101C42.3801 47.5613 42.1609 48.1192 42.1609 48.7836C42.1609 49.4481 42.3801 50.0122 42.8183 50.4759Z" fill="#1C1B1F"/>
</g>
<rect x="0.5" y="0.5" width="79" height="79" rx="15.5" stroke="white" stroke-opacity="0.15"/>
<defs>
<clipPath id="clip0_217_323">
<rect width="80" height="80" rx="16" fill="white"/>
</clipPath>
</defs>
</svg>
