<svg width="80" height="80" viewBox="0 0 80 80" fill="none" xmlns="http://www.w3.org/2000/svg">
<g clip-path="url(#clip0_220_366)">
<path fill-rule="evenodd" clip-rule="evenodd" d="M16 0C7.16344 0 0 7.16344 0 16V64C0 72.8366 7.16344 80 16 80H64C72.8366 80 80 72.8366 80 64V16C80 7.16344 72.8366 0 64 0H16ZM36.0148 60.7697C36.8279 61.5899 37.8341 62 39.0333 62C40.2327 62 41.2521 61.5899 42.0916 60.7697C42.9311 59.9496 43.3509 58.9219 43.3509 57.6867V26.5556H53.8363C55.0335 26.5556 56.0511 26.1383 56.8891 25.3039C57.7272 24.4694 58.1462 23.4512 58.1462 22.2494C58.1462 21.069 57.7272 20.0657 56.8891 19.2394C56.0511 18.4131 55.0335 18 53.8363 18H24.2456C23.0663 18 22.0638 18.4065 21.2383 19.2195C20.4128 20.0326 20 21.04 20 22.2418C20 23.4437 20.4128 24.4631 21.2383 25.3001C22.0638 26.1371 23.0663 26.5556 24.2456 26.5556H34.7953V57.6867C34.7953 58.9219 35.2018 59.9496 36.0148 60.7697Z" fill="#1C1B1F"/>
</g>
<rect x="0.5" y="0.5" width="79" height="79" rx="15.5" stroke="white" stroke-opacity="0.15"/>
<defs>
<clipPath id="clip0_220_366">
<rect width="80" height="80" rx="16" fill="white"/>
</clipPath>
</defs>
</svg>
