<svg width="80" height="80" viewBox="0 0 80 80" fill="none" xmlns="http://www.w3.org/2000/svg">
<g clip-path="url(#clip0_217_344)">
<path fill-rule="evenodd" clip-rule="evenodd" d="M16 0C7.16344 0 0 7.16344 0 16V64C0 72.8366 7.16344 80 16 80H64C72.8366 80 80 72.8366 80 64V16C80 7.16344 72.8366 0 64 0H16ZM43.0273 39.0575C42.297 39.7676 41.4333 40.1227 40.4361 40.1227C39.4388 40.1227 38.5852 39.7671 37.875 39.0558C37.1649 38.3445 36.8098 37.4902 36.8098 36.493C36.8098 35.4958 37.1655 34.6326 37.8768 33.9035C38.5881 33.1744 39.4423 32.8098 40.4396 32.8098C41.4368 32.8098 42.2999 33.175 43.0291 33.9052C43.7581 34.6355 44.1227 35.4992 44.1227 36.4964C44.1227 37.4937 43.7576 38.3474 43.0273 39.0575ZM39.4337 59.8304C39.77 59.9435 40.1079 60 40.4472 60C40.7865 60 41.1243 59.9435 41.4607 59.8304C41.797 59.7174 42.0954 59.5613 42.3558 59.362C47.2638 54.9792 50.9202 50.9394 53.3252 47.2427C55.7301 43.5461 56.9325 40.093 56.9325 36.8834C56.9325 31.736 55.2689 27.6353 51.9415 24.5812C48.6143 21.5271 44.7771 20 40.43 20C36.0829 20 32.2578 21.5271 28.9547 24.5812C25.6516 27.6353 24 31.736 24 36.8834C24 40.0999 25.1943 43.5547 27.5828 47.248C29.9714 50.9412 33.6196 54.9792 38.5276 59.362C38.7953 59.5613 39.0973 59.7174 39.4337 59.8304Z" fill="#1C1B1F"/>
</g>
<rect x="0.5" y="0.5" width="79" height="79" rx="15.5" stroke="white" stroke-opacity="0.15"/>
<defs>
<clipPath id="clip0_217_344">
<rect width="80" height="80" rx="16" fill="white"/>
</clipPath>
</defs>
</svg>
