<svg width="80" height="80" viewBox="0 0 80 80" fill="none" xmlns="http://www.w3.org/2000/svg">
<g clip-path="url(#clip0_217_333)">
<path fill-rule="evenodd" clip-rule="evenodd" d="M16 0C7.16344 0 0 7.16344 0 16V64C0 72.8366 7.16344 80 16 80H64C72.8366 80 80 72.8366 80 64V16C80 7.16344 72.8366 0 64 0H16ZM45.3498 42.6181C43.9141 44.0622 42.1549 44.7843 40.0721 44.7843C38.0242 44.7843 36.2758 44.0578 34.8269 42.6047C33.378 41.1516 32.6536 39.3924 32.6536 37.327C32.6536 35.2268 33.3801 33.4697 34.8333 32.0556C36.2863 30.6416 38.0368 29.9346 40.0848 29.9346C42.1675 29.9346 43.9247 30.6438 45.3561 32.062C46.7876 33.4802 47.5033 35.2307 47.5033 37.3135C47.5033 39.4058 46.7854 41.1739 45.3498 42.6181ZM21.4072 58.5928C22.3453 59.5309 23.4623 60 24.7582 60H55.1895C56.4998 60 57.6291 59.5309 58.5775 58.5928C59.5258 57.6547 60 56.5377 60 55.2418V24.8105C60 23.5002 59.5258 22.3709 58.5775 21.4225C57.6291 20.4742 56.4998 20 55.1895 20H24.7582C23.4623 20 22.3453 20.4742 21.4072 21.4225C20.4691 22.3709 20 23.5002 20 24.8105V55.2418C20 56.5377 20.4691 57.6547 21.4072 58.5928ZM55.1895 52.4706V55.2418H24.7582V52.5752C26.8148 50.7277 29.0948 49.2636 31.5982 48.183C34.1016 47.1024 36.8935 46.5621 39.9739 46.5621C43.0542 46.5621 45.8461 47.085 48.3495 48.1307C50.8529 49.1765 53.1329 50.6231 55.1895 52.4706Z" fill="#1C1B1F"/>
</g>
<rect x="0.5" y="0.5" width="79" height="79" rx="15.5" stroke="white" stroke-opacity="0.15"/>
<defs>
<clipPath id="clip0_217_333">
<rect width="80" height="80" rx="16" fill="white"/>
</clipPath>
</defs>
</svg>
