<svg width="80" height="80" viewBox="0 0 80 80" fill="none" xmlns="http://www.w3.org/2000/svg">
<g clip-path="url(#clip0_217_325)">
<path fill-rule="evenodd" clip-rule="evenodd" d="M16 0C7.16344 0 0 7.16344 0 16V64C0 72.8366 7.16344 80 16 80H64C72.8366 80 80 72.8366 80 64V16C80 7.16344 72.8366 0 64 0H16ZM26.8447 58.6523C27.3629 59.3048 28.0633 59.6311 28.9461 59.6311C29.5986 59.6311 30.1263 59.4296 30.5293 59.0265C30.9324 58.6235 31.2298 58.1726 31.4217 57.6736L33.3792 49.8438H41.8999L40.2879 56.4646C40.0192 57.2706 40.1439 57.9998 40.6621 58.6523C41.1802 59.3048 41.8807 59.6311 42.7635 59.6311C43.416 59.6311 43.9437 59.4296 44.3467 59.0265C44.7497 58.6235 45.0472 58.1726 45.2391 57.6736L47.1965 49.8438H55.0264C55.6789 49.8438 56.2354 49.6614 56.696 49.2968C57.1566 48.9322 57.4636 48.4428 57.6171 47.8287C57.809 46.9843 57.6555 46.2359 57.1566 45.5834C56.6576 44.9309 55.9475 44.6047 55.0264 44.6047H48.5207L50.6509 36.0264H57.3293C57.9818 36.0264 58.5383 35.8441 58.9989 35.4795C59.4595 35.1148 59.7665 34.6255 59.92 34.0114C60.1119 33.167 59.9584 32.4185 59.4595 31.766C58.9605 31.1135 58.2504 30.7873 57.3293 30.7873H51.975L53.5871 24.1665C53.7406 23.3988 53.5679 22.6792 53.0689 22.0075C52.57 21.3358 51.8983 21 51.0539 21C50.4782 21 49.9696 21.1823 49.5282 21.5469C49.0868 21.9116 48.8086 22.3817 48.6934 22.9575L46.6784 30.7873H38.1577L39.7697 24.1665C39.9232 23.3988 39.7505 22.6792 39.2516 22.0075C38.7526 21.3358 38.0809 21 37.2365 21C36.6608 21 36.1522 21.1823 35.7109 21.5469C35.2695 21.9116 34.9912 22.3817 34.8761 22.9575L32.861 30.7873H24.9736C24.3211 30.7873 23.7646 30.9792 23.304 31.363C22.8434 31.7468 22.5364 32.2266 22.3829 32.8023C22.1909 33.6851 22.3445 34.4431 22.8434 35.0764C23.3424 35.7097 24.0525 36.0264 24.9736 36.0264H31.5369L29.4067 44.6047H22.6707C22.0182 44.6047 21.4617 44.7966 21.0011 45.1804C20.5405 45.5642 20.2335 46.044 20.08 46.6197C19.8881 47.5025 20.0416 48.2605 20.5405 48.8938C21.0395 49.5271 21.7496 49.8438 22.6707 49.8438H28.0825L26.4705 56.4646C26.2018 57.2706 26.3266 57.9998 26.8447 58.6523ZM43.2241 44.6047H34.7033L36.8335 36.0264H45.3542L43.2241 44.6047Z" fill="#1C1B1F"/>
</g>
<rect x="0.5" y="0.5" width="79" height="79" rx="15.5" stroke="white" stroke-opacity="0.15"/>
<defs>
<clipPath id="clip0_217_325">
<rect width="80" height="80" rx="16" fill="white"/>
</clipPath>
</defs>
</svg>
