<svg width="80" height="80" viewBox="0 0 80 80" fill="none" xmlns="http://www.w3.org/2000/svg">
<g clip-path="url(#clip0_217_327)">
<path fill-rule="evenodd" clip-rule="evenodd" d="M16 0C7.16344 0 0 7.16344 0 16V64C0 72.8366 7.16344 80 16 80H64C72.8366 80 80 72.8366 80 64V16C80 7.16344 72.8366 0 64 0H16ZM35.1839 44.484V35.5635C35.1839 34.741 35.5635 34.1083 36.3227 33.6655C37.0819 33.2226 37.8252 33.2384 38.5528 33.7129L45.4804 38.2206C46.208 38.6635 46.5718 39.2758 46.5718 40.0576C46.5718 40.8394 46.208 41.4291 45.4804 41.8268L38.5528 46.3345C37.8252 46.809 37.0819 46.8327 36.3227 46.4057C35.5635 45.9786 35.1839 45.3381 35.1839 44.484ZM32.2251 58.4396C34.6835 59.4799 37.2694 60 39.9828 60C42.736 60 45.3212 59.4755 47.7384 58.4264C50.1557 57.3774 52.2645 55.9537 54.0649 54.1554C55.8653 52.3571 57.3046 50.2338 58.3827 47.7856C59.4609 45.3374 60 42.7514 60 40.0277C60 37.2723 59.4609 34.685 58.3827 32.2658C57.3046 29.8466 55.8651 27.7366 54.0642 25.9358C52.2634 24.1349 50.1538 22.6954 47.7355 21.6173C45.3171 20.5391 42.7307 20 39.9763 20C37.2649 20 34.6814 20.5391 32.2257 21.6173C29.77 22.6954 27.6429 24.1347 25.8446 25.9351C24.0463 27.7355 22.6226 29.8465 21.5735 32.2681C20.5245 34.6897 20 37.2767 20 40.0289C20 42.7414 20.5205 45.3261 21.5615 47.7829C22.6025 50.2397 24.0254 52.3699 25.8303 54.1736C27.6351 55.9773 29.7668 57.3993 32.2251 58.4396Z" fill="#1C1B1F"/>
</g>
<rect x="0.5" y="0.5" width="79" height="79" rx="15.5" stroke="white" stroke-opacity="0.15"/>
<defs>
<clipPath id="clip0_217_327">
<rect width="80" height="80" rx="16" fill="white"/>
</clipPath>
</defs>
</svg>
